PathFileType	4	(X/Y/Z)	Patient4_TMGait_0pt7_01_left_30.trc.trc
DataRate	CameraRate	NumFrames	NumMarkers	Units	OrigDataRate	OrigDataStartFrame	OrigNumFrames
88.050314465409	88.050314465409	4	33	mm	88.050314465409	124	       141
Frame#	Time	Sacral			L.Shoulder			Chest			R.Shoulder			Neck			R.ASIS			L.ASIS			R.Thigh.Superior			R.Thigh.Lateral			R.Thigh.Inferior			R.Patella			L.Thigh.Superior			L.Thigh.Lateral			L.Thigh.Inferior			L.Patella			L.Shank.Superior			L.Shank.Lateral			L.Shank.Inferior			R.Shank.Superior			R.Shank.Lateral			R.Shank.Inferior			R.Heel			R.Midfoot.Superior			R.Midfoot.Lateral			R.Toe			L.Heel			L.Midfoot.Lateral			L.Midfoot.Superior			L.Toe			L.Elbow			L.Wrist			R.Elbow			R.Wrist			
		X1	Y1	Z1	X2	Y2	Z2	X3	Y3	Z3	X4	Y4	Z4	X5	Y5	Z5	X6	Y6	Z6	X7	Y7	Z7	X8	Y8	Z8	X9	Y9	Z9	X10	Y10	Z10	X11	Y11	Z11	X12	Y12	Z12	X13	Y13	Z13	X14	Y14	Z14	X15	Y15	Z15	X16	Y16	Z16	X17	Y17	Z17	X18	Y18	Z18	X19	Y19	Z19	X20	Y20	Z20	X21	Y21	Z21	X22	Y22	Z22	X23	Y23	Z23	X24	Y24	Z24	X25	Y25	Z25	X26	Y26	Z26	X27	Y27	Z27	X28	Y28	Z28	X29	Y29	Z29	X30	Y30	Z30	X31	Y31	Z31	X32	Y32	Z32	X33	Y33	Z33	

124	36.036928571429	812.786159654422	1005.389490130940	543.872051567758	1019.866128732775	1416.679832699972	358.705223963261	1123.434364866270	1332.969371550566	512.954465568057	1060.691882271287	1418.395870843374	689.103798975804	1043.891638852339	1475.295694503932	514.324628343727	1035.947164394716	930.044772520056	659.981875244443	1019.547415244147	939.635299090717	383.360937986050	1025.822272551554	718.524587545537	634.289115341466	914.404368855732	629.854104839640	692.239574178900	974.199147591002	561.016665540034	614.953072086801	951.565594372487	476.886861094851	618.347486088283	1084.955620173521	761.843239947714	411.208966739221	1034.609431846034	635.430786559135	327.296896331630	1140.045516652924	577.003953837237	385.562962779329	1166.675518887238	513.498138072330	381.324072197123	1151.946573698930	441.757026070483	369.684191524835	1087.517009482514	310.530079668251	321.021466966923	1180.525290603754	214.048168239541	370.048438571354	910.379060243341	395.008792784490	623.363700481063	822.727942790688	303.062694228712	683.690142261510	850.989779831963	203.579161811850	618.800044228872	699.279495929833	46.510204435932	584.357834854676	872.509727896208	97.273691191594	620.978054084957	782.342166829437	37.600212900552	658.460702814315	990.739954430046	40.431741636135	648.068568159084	1101.785275037267	38.845551847306	409.806993557924	1172.566247817708	42.438588716303	326.665318321469	1247.288503332248	114.575775134099	346.597841689118	1378.604439988043	78.826830067287	314.746934247977	839.243357342361	1119.304954702129	256.096753538201	765.197499169771	870.405926109999	254.686853071246	1205.965321442542	1124.672033443968	807.787859685502	1410.839878600713	1234.783321461727	713.123358012792	
125	36.048285714286	814.466132285799	1004.202471114113	541.030731290040	1021.018801940939	1415.828149510864	356.445353995232	1124.529322928373	1332.335462634974	510.855240775731	1060.948869277120	1417.460020704744	686.847998272312	1044.493466908715	1474.354758082539	512.094908058185	1037.302786931194	928.721786349070	658.014423320355	1021.790241426939	938.041968143449	381.593918786536	1026.437211029899	716.928897624449	632.882589130962	914.097969982206	628.994429190845	690.610029760175	973.686921027524	559.495166032032	613.738936665160	950.119750977100	475.047109182698	617.022087207569	1086.707717607803	759.245809178551	410.033538138384	1034.473285952443	632.939958674549	327.471301077908	1139.656325011920	574.409350100452	386.119379368239	1165.011813455150	510.108640813250	382.585472420353	1149.835735846277	438.229041352062	370.468146426742	1083.864080881800	307.647099287827	322.405958043730	1175.492269794228	210.287818207856	371.784977850386	907.602240715794	393.714157501386	622.254001694619	818.564287467087	303.322141398598	682.913982591338	845.112686580295	203.233330548404	618.359031566041	691.431541356545	47.527612126821	584.500439329457	864.906119746494	97.390115352892	621.062100434384	774.476430175745	38.020453467721	658.549178919538	982.862351635452	40.067261311616	648.144984231830	1093.621059555823	37.795977145226	412.250933491620	1163.882005908993	40.091067986990	328.471093826265	1240.726544650880	109.725745776126	348.732579224326	1371.078398450801	70.433683206747	315.633047027620	838.066435779149	1120.425074566775	253.886874141871	763.328280745464	871.373877352388	253.963166998519	1207.500074946018	1124.338256539503	804.813948738128	1405.463380316463	1244.347608009047	708.951549227118	
126	36.059642857143	816.048385937612	1003.186930345282	538.218765392474	1022.280026175412	1415.084073599493	354.088341485019	1125.711747634254	1331.770680320373	508.671681008090	1061.381156713760	1416.666655964333	684.496556362509	1045.270596118050	1473.555265328798	509.709220912596	1038.625313426238	927.490843671053	655.942689526027	1023.844739215215	936.761943871677	379.758825369266	1027.261372879178	715.491824850785	631.325345203997	914.166557597557	628.182733776223	688.864407678980	973.615473092411	558.051894651783	612.417880251647	949.156909323764	473.194283581310	615.609737226717	1088.651975781110	757.313765513177	408.883221415768	1035.076631822334	631.320979661756	327.283179318797	1139.874970792569	572.641277570197	386.503153868652	1163.945634576941	507.418532913216	383.537337447203	1148.300999619849	435.333704797953	370.954056226069	1080.831780948916	305.595212670746	322.951388258867	1170.520155402274	207.104498018808	373.045202700715	905.204393589629	392.462887024669	621.075691866110	814.720154211491	303.747535330509	682.096543531065	839.459045425800	203.035158408221	617.925864492340	683.642868889188	48.911125312854	584.707136230323	857.431901028422	97.568793542227	621.178508999785	766.671138875018	38.602896255212	658.681056424710	975.036863083119	39.678268785316	648.223294252906	1085.076608002799	37.197476190543	413.805277273565	1155.100604806849	38.293363335542	329.660663321264	1233.867875079319	105.571553694772	350.486367765389	1363.386533221309	62.926078653601	316.656174418355	837.695149246553	1121.096958894368	251.646302390345	762.407893452280	871.845155902022	253.087022936303	1208.510336779473	1123.637082031665	802.084308239033	1399.722752196618	1252.514817664896	705.177258382083	
127	36.071000000000	817.519457073588	1002.419582719463	535.484567294130	1023.640524808976	1414.503350513101	351.670610331968	1126.980239228751	1331.308159739529	506.414767024271	1062.055135723461	1416.071872956290	682.075963837451	1046.259821178152	1472.947122483839	507.201462204181	1039.897914319757	926.413900215860	653.746532983974	1025.640896256353	935.889862753322	377.808383323511	1028.228740660341	714.287090653842	629.600578128275	914.562600604546	627.492380192622	687.022191995317	973.938631444833	556.760747457707	611.008248956067	948.662891307765	471.390038826491	614.182514109215	1090.726298299629	756.192054250877	407.732126350857	1036.461134637199	630.658421224222	326.674619417480	1140.707673264789	571.749865091171	386.612294374233	1163.510814594825	505.502525663502	384.045883607451	1147.365083353405	433.143864987377	371.092967526925	1078.462706274802	304.412838298129	322.664195727900	1165.704844799436	204.590995421733	373.812760613199	903.165565776503	391.326921898647	619.890422679897	811.172082828056	304.406520123380	681.272190983144	834.040071837955	203.053552581233	617.548617848967	675.937968217096	50.740927701171	584.995342143739	850.125620711915	97.830519158261	621.357080209551	758.941896044261	39.380533248637	658.864748416727	967.266959037054	39.274029996856	648.298177692097	1076.450834566181	36.981416969285	414.572274450878	1146.459406360983	37.044421003866	330.286406984373	1226.842273248232	102.279142146208	351.784275591036	1355.688683186812	56.694474831496	317.655346903114	838.152882882466	1121.337076031889	249.367497261675	762.495036435436	871.829156630918	252.023895806112	1208.926311235944	1122.560089082195	799.615744077943	1393.731380375510	1259.261118542845	701.804845279461	
